<mxfile host="app.diagrams.net" agent="Mozilla/5.0 (Windows NT 10.0; Win64; x64) AppleWebKit/537.36 (KHTML, like Gecko) Chrome/133.0.0.0 Safari/537.36 Edg/133.0.0.0" version="26.0.16">
  <diagram name="Page-1" id="ZX347CGa80PyCuaJQacc">
    <mxGraphModel dx="2480" dy="1130" grid="1" gridSize="10" guides="1" tooltips="1" connect="1" arrows="1" fold="1" page="1" pageScale="1" pageWidth="850" pageHeight="1100" math="0" shadow="0">
      <root>
        <mxCell id="0" />
        <mxCell id="1" parent="0" />
        <mxCell id="YSiYtQKr4PyoB7rVC55X-1" value="&lt;div&gt;Student&lt;/div&gt;" style="rounded=0;whiteSpace=wrap;html=1;" vertex="1" parent="1">
          <mxGeometry x="900" y="498" width="120" height="40" as="geometry" />
        </mxCell>
        <mxCell id="YSiYtQKr4PyoB7rVC55X-2" value="Medical" style="rounded=0;whiteSpace=wrap;html=1;" vertex="1" parent="1">
          <mxGeometry x="913" y="283" width="120" height="40" as="geometry" />
        </mxCell>
        <mxCell id="YSiYtQKr4PyoB7rVC55X-3" value="Course" style="rounded=0;whiteSpace=wrap;html=1;" vertex="1" parent="1">
          <mxGeometry x="1320" y="488" width="120" height="40" as="geometry" />
        </mxCell>
        <mxCell id="YSiYtQKr4PyoB7rVC55X-4" value="Lecture" style="rounded=0;whiteSpace=wrap;html=1;" vertex="1" parent="1">
          <mxGeometry x="1450" y="808" width="120" height="40" as="geometry" />
        </mxCell>
        <mxCell id="YSiYtQKr4PyoB7rVC55X-5" value="Attendence" style="rounded=0;whiteSpace=wrap;html=1;" vertex="1" parent="1">
          <mxGeometry x="620" y="288" width="120" height="40" as="geometry" />
        </mxCell>
        <mxCell id="YSiYtQKr4PyoB7rVC55X-6" value="Department" style="rounded=0;whiteSpace=wrap;html=1;" vertex="1" parent="1">
          <mxGeometry x="1440" y="213" width="120" height="40" as="geometry" />
        </mxCell>
        <mxCell id="YSiYtQKr4PyoB7rVC55X-7" value="TG No" style="ellipse;whiteSpace=wrap;html=1;align=center;fontStyle=4;" vertex="1" parent="1">
          <mxGeometry x="873" y="433" width="80" height="30" as="geometry" />
        </mxCell>
        <mxCell id="YSiYtQKr4PyoB7rVC55X-8" value="St_email" style="ellipse;whiteSpace=wrap;html=1;align=center;" vertex="1" parent="1">
          <mxGeometry x="984" y="428" width="80" height="30" as="geometry" />
        </mxCell>
        <mxCell id="YSiYtQKr4PyoB7rVC55X-9" value="Name" style="ellipse;whiteSpace=wrap;html=1;align=center;" vertex="1" parent="1">
          <mxGeometry x="1050" y="530" width="80" height="30" as="geometry" />
        </mxCell>
        <mxCell id="YSiYtQKr4PyoB7rVC55X-10" value="SF_name" style="ellipse;whiteSpace=wrap;html=1;align=center;" vertex="1" parent="1">
          <mxGeometry x="1090" y="583" width="80" height="30" as="geometry" />
        </mxCell>
        <mxCell id="YSiYtQKr4PyoB7rVC55X-11" value="SL_name" style="ellipse;whiteSpace=wrap;html=1;align=center;" vertex="1" parent="1">
          <mxGeometry x="1170" y="553" width="80" height="30" as="geometry" />
        </mxCell>
        <mxCell id="YSiYtQKr4PyoB7rVC55X-12" value="" style="endArrow=none;html=1;rounded=0;exitX=0.5;exitY=0;exitDx=0;exitDy=0;entryX=0.671;entryY=0.955;entryDx=0;entryDy=0;entryPerimeter=0;" edge="1" parent="1" source="YSiYtQKr4PyoB7rVC55X-10" target="YSiYtQKr4PyoB7rVC55X-9">
          <mxGeometry relative="1" as="geometry">
            <mxPoint x="270" y="628" as="sourcePoint" />
            <mxPoint x="1060" y="588" as="targetPoint" />
          </mxGeometry>
        </mxCell>
        <mxCell id="YSiYtQKr4PyoB7rVC55X-13" value="" style="endArrow=none;html=1;rounded=0;entryX=1;entryY=0.5;entryDx=0;entryDy=0;exitX=0;exitY=0.5;exitDx=0;exitDy=0;" edge="1" parent="1" source="YSiYtQKr4PyoB7rVC55X-11" target="YSiYtQKr4PyoB7rVC55X-9">
          <mxGeometry relative="1" as="geometry">
            <mxPoint x="1120" y="597" as="sourcePoint" />
            <mxPoint x="1090" y="585" as="targetPoint" />
          </mxGeometry>
        </mxCell>
        <mxCell id="YSiYtQKr4PyoB7rVC55X-14" value="" style="endArrow=none;html=1;rounded=0;exitX=0.5;exitY=1;exitDx=0;exitDy=0;entryX=0.25;entryY=0;entryDx=0;entryDy=0;" edge="1" parent="1" source="YSiYtQKr4PyoB7rVC55X-7" target="YSiYtQKr4PyoB7rVC55X-1">
          <mxGeometry relative="1" as="geometry">
            <mxPoint x="130" y="538" as="sourcePoint" />
            <mxPoint x="290" y="538" as="targetPoint" />
          </mxGeometry>
        </mxCell>
        <mxCell id="YSiYtQKr4PyoB7rVC55X-15" value="" style="endArrow=none;html=1;rounded=0;exitX=0.75;exitY=0;exitDx=0;exitDy=0;entryX=0.5;entryY=1;entryDx=0;entryDy=0;" edge="1" parent="1" source="YSiYtQKr4PyoB7rVC55X-1" target="YSiYtQKr4PyoB7rVC55X-8">
          <mxGeometry relative="1" as="geometry">
            <mxPoint x="130" y="538" as="sourcePoint" />
            <mxPoint x="290" y="538" as="targetPoint" />
          </mxGeometry>
        </mxCell>
        <mxCell id="YSiYtQKr4PyoB7rVC55X-16" value="Submit" style="shape=rhombus;perimeter=rhombusPerimeter;whiteSpace=wrap;html=1;align=center;" vertex="1" parent="1">
          <mxGeometry x="923" y="368" width="110" height="60" as="geometry" />
        </mxCell>
        <mxCell id="YSiYtQKr4PyoB7rVC55X-17" value="" style="endArrow=none;html=1;rounded=0;exitX=0.5;exitY=1;exitDx=0;exitDy=0;entryX=0.5;entryY=0;entryDx=0;entryDy=0;" edge="1" parent="1" source="YSiYtQKr4PyoB7rVC55X-2" target="YSiYtQKr4PyoB7rVC55X-16">
          <mxGeometry relative="1" as="geometry">
            <mxPoint x="370" y="428" as="sourcePoint" />
            <mxPoint x="530" y="428" as="targetPoint" />
          </mxGeometry>
        </mxCell>
        <mxCell id="YSiYtQKr4PyoB7rVC55X-18" value="Med Id" style="ellipse;whiteSpace=wrap;html=1;align=center;fontStyle=4;" vertex="1" parent="1">
          <mxGeometry x="893" y="223" width="80" height="30" as="geometry" />
        </mxCell>
        <mxCell id="YSiYtQKr4PyoB7rVC55X-19" value="TG_No" style="ellipse;whiteSpace=wrap;html=1;align=center;" vertex="1" parent="1">
          <mxGeometry x="1003" y="223" width="80" height="30" as="geometry" />
        </mxCell>
        <mxCell id="YSiYtQKr4PyoB7rVC55X-20" value="C_Code" style="ellipse;whiteSpace=wrap;html=1;align=center;" vertex="1" parent="1">
          <mxGeometry x="1083" y="263" width="80" height="30" as="geometry" />
        </mxCell>
        <mxCell id="YSiYtQKr4PyoB7rVC55X-21" value="" style="endArrow=none;html=1;rounded=0;entryX=0.5;entryY=1;entryDx=0;entryDy=0;exitX=0.25;exitY=0;exitDx=0;exitDy=0;" edge="1" parent="1" source="YSiYtQKr4PyoB7rVC55X-2" target="YSiYtQKr4PyoB7rVC55X-18">
          <mxGeometry relative="1" as="geometry">
            <mxPoint x="370" y="388" as="sourcePoint" />
            <mxPoint x="530" y="388" as="targetPoint" />
          </mxGeometry>
        </mxCell>
        <mxCell id="YSiYtQKr4PyoB7rVC55X-22" value="" style="endArrow=none;html=1;rounded=0;exitX=0.5;exitY=1;exitDx=0;exitDy=0;entryX=0.75;entryY=0;entryDx=0;entryDy=0;" edge="1" parent="1" source="YSiYtQKr4PyoB7rVC55X-19" target="YSiYtQKr4PyoB7rVC55X-2">
          <mxGeometry relative="1" as="geometry">
            <mxPoint x="370" y="388" as="sourcePoint" />
            <mxPoint x="530" y="388" as="targetPoint" />
          </mxGeometry>
        </mxCell>
        <mxCell id="YSiYtQKr4PyoB7rVC55X-23" value="" style="endArrow=none;html=1;rounded=0;entryX=0;entryY=0.5;entryDx=0;entryDy=0;exitX=1;exitY=0.5;exitDx=0;exitDy=0;" edge="1" parent="1" source="YSiYtQKr4PyoB7rVC55X-2" target="YSiYtQKr4PyoB7rVC55X-20">
          <mxGeometry relative="1" as="geometry">
            <mxPoint x="370" y="388" as="sourcePoint" />
            <mxPoint x="530" y="388" as="targetPoint" />
          </mxGeometry>
        </mxCell>
        <mxCell id="YSiYtQKr4PyoB7rVC55X-24" value="Date" style="ellipse;whiteSpace=wrap;html=1;align=center;" vertex="1" parent="1">
          <mxGeometry x="1083" y="323" width="80" height="30" as="geometry" />
        </mxCell>
        <mxCell id="YSiYtQKr4PyoB7rVC55X-25" value="" style="endArrow=none;html=1;rounded=0;entryX=0;entryY=0.5;entryDx=0;entryDy=0;exitX=1;exitY=1;exitDx=0;exitDy=0;" edge="1" parent="1" source="YSiYtQKr4PyoB7rVC55X-2" target="YSiYtQKr4PyoB7rVC55X-24">
          <mxGeometry relative="1" as="geometry">
            <mxPoint x="490" y="253" as="sourcePoint" />
            <mxPoint x="542" y="214" as="targetPoint" />
          </mxGeometry>
        </mxCell>
        <mxCell id="YSiYtQKr4PyoB7rVC55X-26" value="Week_No" style="ellipse;whiteSpace=wrap;html=1;align=center;" vertex="1" parent="1">
          <mxGeometry x="1083" y="383" width="80" height="30" as="geometry" />
        </mxCell>
        <mxCell id="YSiYtQKr4PyoB7rVC55X-27" value="" style="endArrow=none;html=1;rounded=0;exitX=0;exitY=0.5;exitDx=0;exitDy=0;entryX=1;entryY=0.5;entryDx=0;entryDy=0;" edge="1" parent="1" source="YSiYtQKr4PyoB7rVC55X-26" target="YSiYtQKr4PyoB7rVC55X-16">
          <mxGeometry relative="1" as="geometry">
            <mxPoint x="430" y="248" as="sourcePoint" />
            <mxPoint x="590" y="248" as="targetPoint" />
          </mxGeometry>
        </mxCell>
        <mxCell id="YSiYtQKr4PyoB7rVC55X-28" value="Study" style="shape=rhombus;perimeter=rhombusPerimeter;whiteSpace=wrap;html=1;align=center;" vertex="1" parent="1">
          <mxGeometry x="1130" y="482" width="110" height="60" as="geometry" />
        </mxCell>
        <mxCell id="YSiYtQKr4PyoB7rVC55X-29" value="" style="endArrow=none;html=1;rounded=0;exitX=1;exitY=0.5;exitDx=0;exitDy=0;entryX=0;entryY=0.5;entryDx=0;entryDy=0;" edge="1" parent="1" source="YSiYtQKr4PyoB7rVC55X-1" target="YSiYtQKr4PyoB7rVC55X-28">
          <mxGeometry relative="1" as="geometry">
            <mxPoint x="430" y="488" as="sourcePoint" />
            <mxPoint x="590" y="488" as="targetPoint" />
          </mxGeometry>
        </mxCell>
        <mxCell id="YSiYtQKr4PyoB7rVC55X-30" value="" style="endArrow=none;html=1;rounded=0;exitX=1;exitY=0.5;exitDx=0;exitDy=0;entryX=0;entryY=0.5;entryDx=0;entryDy=0;" edge="1" parent="1" source="YSiYtQKr4PyoB7rVC55X-28" target="YSiYtQKr4PyoB7rVC55X-3">
          <mxGeometry relative="1" as="geometry">
            <mxPoint x="430" y="488" as="sourcePoint" />
            <mxPoint x="620" y="488" as="targetPoint" />
          </mxGeometry>
        </mxCell>
        <mxCell id="YSiYtQKr4PyoB7rVC55X-31" value="C Code" style="ellipse;whiteSpace=wrap;html=1;align=center;fontStyle=4;" vertex="1" parent="1">
          <mxGeometry x="1297" y="403" width="80" height="30" as="geometry" />
        </mxCell>
        <mxCell id="YSiYtQKr4PyoB7rVC55X-32" value="C_Name" style="ellipse;whiteSpace=wrap;html=1;align=center;" vertex="1" parent="1">
          <mxGeometry x="1430" y="408" width="80" height="30" as="geometry" />
        </mxCell>
        <mxCell id="YSiYtQKr4PyoB7rVC55X-33" value="C_Credits" style="ellipse;whiteSpace=wrap;html=1;align=center;" vertex="1" parent="1">
          <mxGeometry x="1500" y="458" width="80" height="30" as="geometry" />
        </mxCell>
        <mxCell id="YSiYtQKr4PyoB7rVC55X-34" value="C_Statics" style="ellipse;whiteSpace=wrap;html=1;align=center;" vertex="1" parent="1">
          <mxGeometry x="1480" y="528" width="80" height="30" as="geometry" />
        </mxCell>
        <mxCell id="YSiYtQKr4PyoB7rVC55X-35" value="" style="endArrow=none;html=1;rounded=0;exitX=0.5;exitY=1;exitDx=0;exitDy=0;entryX=0.25;entryY=0;entryDx=0;entryDy=0;" edge="1" parent="1" source="YSiYtQKr4PyoB7rVC55X-31" target="YSiYtQKr4PyoB7rVC55X-3">
          <mxGeometry relative="1" as="geometry">
            <mxPoint x="640" y="488" as="sourcePoint" />
            <mxPoint x="800" y="488" as="targetPoint" />
          </mxGeometry>
        </mxCell>
        <mxCell id="YSiYtQKr4PyoB7rVC55X-36" value="" style="endArrow=none;html=1;rounded=0;exitX=0.75;exitY=0;exitDx=0;exitDy=0;entryX=0.5;entryY=1;entryDx=0;entryDy=0;" edge="1" parent="1" source="YSiYtQKr4PyoB7rVC55X-3" target="YSiYtQKr4PyoB7rVC55X-32">
          <mxGeometry relative="1" as="geometry">
            <mxPoint x="640" y="488" as="sourcePoint" />
            <mxPoint x="800" y="488" as="targetPoint" />
          </mxGeometry>
        </mxCell>
        <mxCell id="YSiYtQKr4PyoB7rVC55X-37" value="" style="endArrow=none;html=1;rounded=0;exitX=1;exitY=0.5;exitDx=0;exitDy=0;entryX=0;entryY=0.5;entryDx=0;entryDy=0;" edge="1" parent="1" source="YSiYtQKr4PyoB7rVC55X-3" target="YSiYtQKr4PyoB7rVC55X-33">
          <mxGeometry relative="1" as="geometry">
            <mxPoint x="640" y="488" as="sourcePoint" />
            <mxPoint x="800" y="488" as="targetPoint" />
          </mxGeometry>
        </mxCell>
        <mxCell id="YSiYtQKr4PyoB7rVC55X-38" value="" style="endArrow=none;html=1;rounded=0;exitX=1;exitY=1;exitDx=0;exitDy=0;entryX=0;entryY=0.5;entryDx=0;entryDy=0;" edge="1" parent="1" source="YSiYtQKr4PyoB7rVC55X-3" target="YSiYtQKr4PyoB7rVC55X-34">
          <mxGeometry relative="1" as="geometry">
            <mxPoint x="640" y="488" as="sourcePoint" />
            <mxPoint x="800" y="488" as="targetPoint" />
          </mxGeometry>
        </mxCell>
        <mxCell id="YSiYtQKr4PyoB7rVC55X-39" style="edgeStyle=orthogonalEdgeStyle;rounded=0;orthogonalLoop=1;jettySize=auto;html=1;exitX=0.5;exitY=1;exitDx=0;exitDy=0;" edge="1" parent="1" source="YSiYtQKr4PyoB7rVC55X-7" target="YSiYtQKr4PyoB7rVC55X-7">
          <mxGeometry relative="1" as="geometry" />
        </mxCell>
        <mxCell id="YSiYtQKr4PyoB7rVC55X-40" value="Dep ID" style="ellipse;whiteSpace=wrap;html=1;align=center;fontStyle=4;" vertex="1" parent="1">
          <mxGeometry x="1410" y="118" width="80" height="30" as="geometry" />
        </mxCell>
        <mxCell id="YSiYtQKr4PyoB7rVC55X-41" value="Dep_Name" style="ellipse;whiteSpace=wrap;html=1;align=center;" vertex="1" parent="1">
          <mxGeometry x="1530" y="128" width="80" height="30" as="geometry" />
        </mxCell>
        <mxCell id="YSiYtQKr4PyoB7rVC55X-42" value="" style="endArrow=none;html=1;rounded=0;exitX=0.5;exitY=1;exitDx=0;exitDy=0;entryX=0.25;entryY=0;entryDx=0;entryDy=0;" edge="1" parent="1" source="YSiYtQKr4PyoB7rVC55X-40" target="YSiYtQKr4PyoB7rVC55X-6">
          <mxGeometry relative="1" as="geometry">
            <mxPoint x="960" y="408" as="sourcePoint" />
            <mxPoint x="1120" y="408" as="targetPoint" />
          </mxGeometry>
        </mxCell>
        <mxCell id="YSiYtQKr4PyoB7rVC55X-43" value="" style="endArrow=none;html=1;rounded=0;exitX=0.5;exitY=1;exitDx=0;exitDy=0;entryX=0.818;entryY=0;entryDx=0;entryDy=0;entryPerimeter=0;" edge="1" parent="1" source="YSiYtQKr4PyoB7rVC55X-41" target="YSiYtQKr4PyoB7rVC55X-6">
          <mxGeometry relative="1" as="geometry">
            <mxPoint x="1100" y="408" as="sourcePoint" />
            <mxPoint x="1260" y="408" as="targetPoint" />
          </mxGeometry>
        </mxCell>
        <mxCell id="YSiYtQKr4PyoB7rVC55X-44" value="" style="endArrow=none;html=1;rounded=0;exitX=0.5;exitY=1;exitDx=0;exitDy=0;entryX=0.5;entryY=0;entryDx=0;entryDy=0;" edge="1" parent="1" source="YSiYtQKr4PyoB7rVC55X-45" target="YSiYtQKr4PyoB7rVC55X-3">
          <mxGeometry relative="1" as="geometry">
            <mxPoint x="1440" y="368" as="sourcePoint" />
            <mxPoint x="1260" y="408" as="targetPoint" />
          </mxGeometry>
        </mxCell>
        <mxCell id="YSiYtQKr4PyoB7rVC55X-45" value="Has" style="shape=rhombus;perimeter=rhombusPerimeter;whiteSpace=wrap;html=1;align=center;" vertex="1" parent="1">
          <mxGeometry x="1390" y="298" width="110" height="60" as="geometry" />
        </mxCell>
        <mxCell id="YSiYtQKr4PyoB7rVC55X-46" value="" style="endArrow=none;html=1;rounded=0;exitX=0.358;exitY=0.997;exitDx=0;exitDy=0;exitPerimeter=0;entryX=0.5;entryY=0;entryDx=0;entryDy=0;" edge="1" parent="1" source="YSiYtQKr4PyoB7rVC55X-6" target="YSiYtQKr4PyoB7rVC55X-45">
          <mxGeometry relative="1" as="geometry">
            <mxPoint x="1230" y="318" as="sourcePoint" />
            <mxPoint x="1260" y="408" as="targetPoint" />
          </mxGeometry>
        </mxCell>
        <mxCell id="YSiYtQKr4PyoB7rVC55X-47" value="Teach" style="shape=rhombus;perimeter=rhombusPerimeter;whiteSpace=wrap;html=1;align=center;" vertex="1" parent="1">
          <mxGeometry x="1370" y="648" width="110" height="60" as="geometry" />
        </mxCell>
        <mxCell id="YSiYtQKr4PyoB7rVC55X-48" value="Lec Id" style="ellipse;whiteSpace=wrap;html=1;align=center;fontStyle=4;" vertex="1" parent="1">
          <mxGeometry x="1420" y="888" width="80" height="30" as="geometry" />
        </mxCell>
        <mxCell id="YSiYtQKr4PyoB7rVC55X-49" value="Name" style="ellipse;whiteSpace=wrap;html=1;align=center;" vertex="1" parent="1">
          <mxGeometry x="1540" y="898" width="80" height="30" as="geometry" />
        </mxCell>
        <mxCell id="YSiYtQKr4PyoB7rVC55X-50" value="LF_name" style="ellipse;whiteSpace=wrap;html=1;align=center;" vertex="1" parent="1">
          <mxGeometry x="1490" y="958" width="80" height="30" as="geometry" />
        </mxCell>
        <mxCell id="YSiYtQKr4PyoB7rVC55X-51" value="LL_name" style="ellipse;whiteSpace=wrap;html=1;align=center;" vertex="1" parent="1">
          <mxGeometry x="1600" y="958" width="80" height="30" as="geometry" />
        </mxCell>
        <mxCell id="YSiYtQKr4PyoB7rVC55X-52" value="" style="endArrow=none;html=1;rounded=0;exitX=0.25;exitY=1;exitDx=0;exitDy=0;entryX=0.5;entryY=0;entryDx=0;entryDy=0;" edge="1" parent="1" source="YSiYtQKr4PyoB7rVC55X-4" target="YSiYtQKr4PyoB7rVC55X-48">
          <mxGeometry relative="1" as="geometry">
            <mxPoint x="1100" y="858" as="sourcePoint" />
            <mxPoint x="1260" y="858" as="targetPoint" />
          </mxGeometry>
        </mxCell>
        <mxCell id="YSiYtQKr4PyoB7rVC55X-53" value="" style="endArrow=none;html=1;rounded=0;entryX=0.5;entryY=0;entryDx=0;entryDy=0;" edge="1" parent="1" target="YSiYtQKr4PyoB7rVC55X-49">
          <mxGeometry relative="1" as="geometry">
            <mxPoint x="1560" y="848" as="sourcePoint" />
            <mxPoint x="1690" y="858" as="targetPoint" />
          </mxGeometry>
        </mxCell>
        <mxCell id="YSiYtQKr4PyoB7rVC55X-54" value="" style="endArrow=none;html=1;rounded=0;exitX=0;exitY=1;exitDx=0;exitDy=0;entryX=0.5;entryY=0;entryDx=0;entryDy=0;" edge="1" parent="1" source="YSiYtQKr4PyoB7rVC55X-49" target="YSiYtQKr4PyoB7rVC55X-50">
          <mxGeometry relative="1" as="geometry">
            <mxPoint x="1100" y="858" as="sourcePoint" />
            <mxPoint x="1260" y="858" as="targetPoint" />
          </mxGeometry>
        </mxCell>
        <mxCell id="YSiYtQKr4PyoB7rVC55X-55" value="" style="endArrow=none;html=1;rounded=0;entryX=1;entryY=1;entryDx=0;entryDy=0;exitX=0.5;exitY=0;exitDx=0;exitDy=0;" edge="1" parent="1" source="YSiYtQKr4PyoB7rVC55X-51" target="YSiYtQKr4PyoB7rVC55X-49">
          <mxGeometry relative="1" as="geometry">
            <mxPoint x="1340" y="968" as="sourcePoint" />
            <mxPoint x="1190" y="898" as="targetPoint" />
          </mxGeometry>
        </mxCell>
        <mxCell id="YSiYtQKr4PyoB7rVC55X-56" value="" style="endArrow=none;html=1;rounded=0;exitX=0.5;exitY=1;exitDx=0;exitDy=0;entryX=0.5;entryY=0;entryDx=0;entryDy=0;" edge="1" parent="1" source="YSiYtQKr4PyoB7rVC55X-47" target="YSiYtQKr4PyoB7rVC55X-4">
          <mxGeometry relative="1" as="geometry">
            <mxPoint x="1440" y="758" as="sourcePoint" />
            <mxPoint x="1260" y="728" as="targetPoint" />
          </mxGeometry>
        </mxCell>
        <mxCell id="YSiYtQKr4PyoB7rVC55X-57" value="" style="endArrow=none;html=1;rounded=0;exitX=0.5;exitY=1;exitDx=0;exitDy=0;entryX=0.5;entryY=0;entryDx=0;entryDy=0;" edge="1" parent="1" source="YSiYtQKr4PyoB7rVC55X-3" target="YSiYtQKr4PyoB7rVC55X-47">
          <mxGeometry relative="1" as="geometry">
            <mxPoint x="1100" y="728" as="sourcePoint" />
            <mxPoint x="1260" y="728" as="targetPoint" />
          </mxGeometry>
        </mxCell>
        <mxCell id="YSiYtQKr4PyoB7rVC55X-58" value="No_Of_Hours_Per_Week" style="ellipse;whiteSpace=wrap;html=1;align=center;" vertex="1" parent="1">
          <mxGeometry x="1200" y="708" width="150" height="30" as="geometry" />
        </mxCell>
        <mxCell id="YSiYtQKr4PyoB7rVC55X-59" value="" style="endArrow=none;html=1;rounded=0;exitX=0;exitY=0.5;exitDx=0;exitDy=0;entryX=1;entryY=0;entryDx=0;entryDy=0;" edge="1" parent="1" source="YSiYtQKr4PyoB7rVC55X-47" target="YSiYtQKr4PyoB7rVC55X-58">
          <mxGeometry relative="1" as="geometry">
            <mxPoint x="1320" y="688" as="sourcePoint" />
            <mxPoint x="1260" y="728" as="targetPoint" />
          </mxGeometry>
        </mxCell>
        <mxCell id="YSiYtQKr4PyoB7rVC55X-60" value="" style="endArrow=none;html=1;rounded=0;entryX=0.5;entryY=1;entryDx=0;entryDy=0;exitX=0.5;exitY=0;exitDx=0;exitDy=0;" edge="1" parent="1" source="YSiYtQKr4PyoB7rVC55X-1" target="YSiYtQKr4PyoB7rVC55X-16">
          <mxGeometry relative="1" as="geometry">
            <mxPoint x="1040" y="418" as="sourcePoint" />
            <mxPoint x="1200" y="418" as="targetPoint" />
          </mxGeometry>
        </mxCell>
        <mxCell id="YSiYtQKr4PyoB7rVC55X-61" value="" style="endArrow=none;html=1;rounded=0;exitX=1;exitY=1;exitDx=0;exitDy=0;entryX=0;entryY=0.5;entryDx=0;entryDy=0;" edge="1" parent="1" source="YSiYtQKr4PyoB7rVC55X-1" target="YSiYtQKr4PyoB7rVC55X-9">
          <mxGeometry relative="1" as="geometry">
            <mxPoint x="930" y="598" as="sourcePoint" />
            <mxPoint x="1050" y="628" as="targetPoint" />
          </mxGeometry>
        </mxCell>
        <mxCell id="YSiYtQKr4PyoB7rVC55X-62" value="GPA" style="rounded=0;whiteSpace=wrap;html=1;" vertex="1" parent="1">
          <mxGeometry x="960" y="788" width="120" height="40" as="geometry" />
        </mxCell>
        <mxCell id="YSiYtQKr4PyoB7rVC55X-63" value="GPA Id" style="ellipse;whiteSpace=wrap;html=1;align=center;fontStyle=4;" vertex="1" parent="1">
          <mxGeometry x="1120" y="808" width="80" height="30" as="geometry" />
        </mxCell>
        <mxCell id="YSiYtQKr4PyoB7rVC55X-64" value="SGPA" style="ellipse;whiteSpace=wrap;html=1;align=center;" vertex="1" parent="1">
          <mxGeometry x="1080" y="878" width="80" height="30" as="geometry" />
        </mxCell>
        <mxCell id="YSiYtQKr4PyoB7rVC55X-65" value="CGPA" style="ellipse;whiteSpace=wrap;html=1;align=center;" vertex="1" parent="1">
          <mxGeometry x="953" y="888" width="80" height="30" as="geometry" />
        </mxCell>
        <mxCell id="YSiYtQKr4PyoB7rVC55X-67" value="" style="endArrow=none;html=1;rounded=0;exitX=1;exitY=0.5;exitDx=0;exitDy=0;entryX=0;entryY=0.5;entryDx=0;entryDy=0;" edge="1" parent="1" source="YSiYtQKr4PyoB7rVC55X-62" target="YSiYtQKr4PyoB7rVC55X-63">
          <mxGeometry relative="1" as="geometry">
            <mxPoint x="1170" y="698" as="sourcePoint" />
            <mxPoint x="1330" y="698" as="targetPoint" />
          </mxGeometry>
        </mxCell>
        <mxCell id="YSiYtQKr4PyoB7rVC55X-68" value="" style="endArrow=none;html=1;rounded=0;exitX=0.75;exitY=1;exitDx=0;exitDy=0;entryX=0;entryY=0;entryDx=0;entryDy=0;" edge="1" parent="1" source="YSiYtQKr4PyoB7rVC55X-62" target="YSiYtQKr4PyoB7rVC55X-64">
          <mxGeometry relative="1" as="geometry">
            <mxPoint x="1170" y="698" as="sourcePoint" />
            <mxPoint x="1330" y="698" as="targetPoint" />
          </mxGeometry>
        </mxCell>
        <mxCell id="YSiYtQKr4PyoB7rVC55X-69" value="" style="endArrow=none;html=1;rounded=0;exitX=0.5;exitY=1;exitDx=0;exitDy=0;entryX=0.5;entryY=0;entryDx=0;entryDy=0;" edge="1" parent="1" source="YSiYtQKr4PyoB7rVC55X-62" target="YSiYtQKr4PyoB7rVC55X-65">
          <mxGeometry relative="1" as="geometry">
            <mxPoint x="1170" y="698" as="sourcePoint" />
            <mxPoint x="1330" y="698" as="targetPoint" />
          </mxGeometry>
        </mxCell>
        <mxCell id="YSiYtQKr4PyoB7rVC55X-71" value="Has" style="shape=rhombus;perimeter=rhombusPerimeter;whiteSpace=wrap;html=1;align=center;" vertex="1" parent="1">
          <mxGeometry x="910" y="648" width="110" height="60" as="geometry" />
        </mxCell>
        <mxCell id="YSiYtQKr4PyoB7rVC55X-72" value="" style="endArrow=none;html=1;rounded=0;exitX=0.5;exitY=1;exitDx=0;exitDy=0;entryX=0.5;entryY=0;entryDx=0;entryDy=0;" edge="1" parent="1" source="YSiYtQKr4PyoB7rVC55X-1" target="YSiYtQKr4PyoB7rVC55X-71">
          <mxGeometry relative="1" as="geometry">
            <mxPoint x="1170" y="698" as="sourcePoint" />
            <mxPoint x="1320" y="698" as="targetPoint" />
          </mxGeometry>
        </mxCell>
        <mxCell id="YSiYtQKr4PyoB7rVC55X-73" value="" style="endArrow=none;html=1;rounded=0;exitX=0.5;exitY=1;exitDx=0;exitDy=0;entryX=0.5;entryY=0;entryDx=0;entryDy=0;" edge="1" parent="1" source="YSiYtQKr4PyoB7rVC55X-71" target="YSiYtQKr4PyoB7rVC55X-62">
          <mxGeometry relative="1" as="geometry">
            <mxPoint x="1170" y="698" as="sourcePoint" />
            <mxPoint x="1330" y="698" as="targetPoint" />
          </mxGeometry>
        </mxCell>
        <mxCell id="YSiYtQKr4PyoB7rVC55X-74" value="End_Exam_Mark" style="rounded=0;whiteSpace=wrap;html=1;" vertex="1" parent="1">
          <mxGeometry x="680" y="748" width="120" height="40" as="geometry" />
        </mxCell>
        <mxCell id="YSiYtQKr4PyoB7rVC55X-75" value="TG_No" style="ellipse;whiteSpace=wrap;html=1;align=center;" vertex="1" parent="1">
          <mxGeometry x="780" y="838" width="80" height="30" as="geometry" />
        </mxCell>
        <mxCell id="YSiYtQKr4PyoB7rVC55X-76" value="C_Code" style="ellipse;whiteSpace=wrap;html=1;align=center;" vertex="1" parent="1">
          <mxGeometry x="700" y="868" width="80" height="30" as="geometry" />
        </mxCell>
        <mxCell id="YSiYtQKr4PyoB7rVC55X-77" value="EEM Id" style="ellipse;whiteSpace=wrap;html=1;align=center;fontStyle=4;" vertex="1" parent="1">
          <mxGeometry x="610" y="838" width="80" height="30" as="geometry" />
        </mxCell>
        <mxCell id="YSiYtQKr4PyoB7rVC55X-78" value="EE_Marks" style="ellipse;whiteSpace=wrap;html=1;align=center;" vertex="1" parent="1">
          <mxGeometry x="840" y="728" width="80" height="30" as="geometry" />
        </mxCell>
        <mxCell id="YSiYtQKr4PyoB7rVC55X-79" value="" style="endArrow=none;html=1;rounded=0;entryX=0;entryY=0.5;entryDx=0;entryDy=0;" edge="1" parent="1" target="YSiYtQKr4PyoB7rVC55X-78">
          <mxGeometry relative="1" as="geometry">
            <mxPoint x="800" y="758" as="sourcePoint" />
            <mxPoint x="950" y="748" as="targetPoint" />
          </mxGeometry>
        </mxCell>
        <mxCell id="YSiYtQKr4PyoB7rVC55X-80" value="" style="endArrow=none;html=1;rounded=0;entryX=0.5;entryY=0;entryDx=0;entryDy=0;exitX=0.75;exitY=1;exitDx=0;exitDy=0;" edge="1" parent="1" source="YSiYtQKr4PyoB7rVC55X-74" target="YSiYtQKr4PyoB7rVC55X-75">
          <mxGeometry relative="1" as="geometry">
            <mxPoint x="780" y="798" as="sourcePoint" />
            <mxPoint x="950" y="748" as="targetPoint" />
          </mxGeometry>
        </mxCell>
        <mxCell id="YSiYtQKr4PyoB7rVC55X-81" value="" style="endArrow=none;html=1;rounded=0;exitX=0.5;exitY=1;exitDx=0;exitDy=0;entryX=0.5;entryY=0;entryDx=0;entryDy=0;" edge="1" parent="1" source="YSiYtQKr4PyoB7rVC55X-74" target="YSiYtQKr4PyoB7rVC55X-76">
          <mxGeometry relative="1" as="geometry">
            <mxPoint x="790" y="748" as="sourcePoint" />
            <mxPoint x="950" y="748" as="targetPoint" />
          </mxGeometry>
        </mxCell>
        <mxCell id="YSiYtQKr4PyoB7rVC55X-82" value="" style="endArrow=none;html=1;rounded=0;exitX=0.25;exitY=1;exitDx=0;exitDy=0;entryX=0.5;entryY=0;entryDx=0;entryDy=0;" edge="1" parent="1" source="YSiYtQKr4PyoB7rVC55X-74" target="YSiYtQKr4PyoB7rVC55X-77">
          <mxGeometry relative="1" as="geometry">
            <mxPoint x="790" y="748" as="sourcePoint" />
            <mxPoint x="950" y="748" as="targetPoint" />
          </mxGeometry>
        </mxCell>
        <mxCell id="YSiYtQKr4PyoB7rVC55X-83" value="Has" style="shape=rhombus;perimeter=rhombusPerimeter;whiteSpace=wrap;html=1;align=center;" vertex="1" parent="1">
          <mxGeometry x="790" y="613" width="110" height="60" as="geometry" />
        </mxCell>
        <mxCell id="YSiYtQKr4PyoB7rVC55X-84" value="" style="endArrow=none;html=1;rounded=0;exitX=0.25;exitY=1;exitDx=0;exitDy=0;entryX=0.5;entryY=0;entryDx=0;entryDy=0;" edge="1" parent="1" source="YSiYtQKr4PyoB7rVC55X-1" target="YSiYtQKr4PyoB7rVC55X-83">
          <mxGeometry relative="1" as="geometry">
            <mxPoint x="680" y="688" as="sourcePoint" />
            <mxPoint x="840" y="688" as="targetPoint" />
          </mxGeometry>
        </mxCell>
        <mxCell id="YSiYtQKr4PyoB7rVC55X-85" value="" style="endArrow=none;html=1;rounded=0;exitX=0.5;exitY=1;exitDx=0;exitDy=0;entryX=0.5;entryY=0;entryDx=0;entryDy=0;" edge="1" parent="1" source="YSiYtQKr4PyoB7rVC55X-83" target="YSiYtQKr4PyoB7rVC55X-74">
          <mxGeometry relative="1" as="geometry">
            <mxPoint x="760" y="668" as="sourcePoint" />
            <mxPoint x="780" y="708" as="targetPoint" />
          </mxGeometry>
        </mxCell>
        <mxCell id="YSiYtQKr4PyoB7rVC55X-86" value="CA_Mark" style="rounded=0;whiteSpace=wrap;html=1;" vertex="1" parent="1">
          <mxGeometry x="270" y="788" width="120" height="40" as="geometry" />
        </mxCell>
        <mxCell id="YSiYtQKr4PyoB7rVC55X-87" value="Atten Id" style="ellipse;whiteSpace=wrap;html=1;align=center;fontStyle=4;" vertex="1" parent="1">
          <mxGeometry x="632" y="223" width="80" height="30" as="geometry" />
        </mxCell>
        <mxCell id="YSiYtQKr4PyoB7rVC55X-90" value="Atten_Status" style="ellipse;whiteSpace=wrap;html=1;align=center;" vertex="1" parent="1">
          <mxGeometry x="783" y="333" width="90" height="30" as="geometry" />
        </mxCell>
        <mxCell id="YSiYtQKr4PyoB7rVC55X-91" value="" style="endArrow=none;html=1;rounded=0;exitX=0.5;exitY=0;exitDx=0;exitDy=0;entryX=0.5;entryY=1;entryDx=0;entryDy=0;" edge="1" parent="1" source="YSiYtQKr4PyoB7rVC55X-5" target="YSiYtQKr4PyoB7rVC55X-87">
          <mxGeometry relative="1" as="geometry">
            <mxPoint x="680" y="348" as="sourcePoint" />
            <mxPoint x="840" y="348" as="targetPoint" />
          </mxGeometry>
        </mxCell>
        <mxCell id="YSiYtQKr4PyoB7rVC55X-94" value="" style="endArrow=none;html=1;rounded=0;exitX=1;exitY=1;exitDx=0;exitDy=0;entryX=0;entryY=0.5;entryDx=0;entryDy=0;" edge="1" parent="1" source="YSiYtQKr4PyoB7rVC55X-5" target="YSiYtQKr4PyoB7rVC55X-90">
          <mxGeometry relative="1" as="geometry">
            <mxPoint x="690" y="308" as="sourcePoint" />
            <mxPoint x="840" y="318" as="targetPoint" />
          </mxGeometry>
        </mxCell>
        <mxCell id="YSiYtQKr4PyoB7rVC55X-95" value="Has" style="shape=rhombus;perimeter=rhombusPerimeter;whiteSpace=wrap;html=1;align=center;" vertex="1" parent="1">
          <mxGeometry x="680" y="398" width="110" height="60" as="geometry" />
        </mxCell>
        <mxCell id="YSiYtQKr4PyoB7rVC55X-96" value="" style="endArrow=none;html=1;rounded=0;exitX=0.5;exitY=1;exitDx=0;exitDy=0;entryX=0.5;entryY=0;entryDx=0;entryDy=0;" edge="1" parent="1" source="YSiYtQKr4PyoB7rVC55X-5" target="YSiYtQKr4PyoB7rVC55X-95">
          <mxGeometry relative="1" as="geometry">
            <mxPoint x="680" y="458" as="sourcePoint" />
            <mxPoint x="820" y="448" as="targetPoint" />
          </mxGeometry>
        </mxCell>
        <mxCell id="YSiYtQKr4PyoB7rVC55X-97" value="" style="endArrow=none;html=1;rounded=0;exitX=0.5;exitY=1;exitDx=0;exitDy=0;entryX=0;entryY=0;entryDx=0;entryDy=0;" edge="1" parent="1" source="YSiYtQKr4PyoB7rVC55X-95" target="YSiYtQKr4PyoB7rVC55X-1">
          <mxGeometry relative="1" as="geometry">
            <mxPoint x="720" y="518" as="sourcePoint" />
            <mxPoint x="880" y="518" as="targetPoint" />
          </mxGeometry>
        </mxCell>
        <mxCell id="YSiYtQKr4PyoB7rVC55X-98" value="CAM Id" style="ellipse;whiteSpace=wrap;html=1;align=center;fontStyle=4;" vertex="1" parent="1">
          <mxGeometry x="180" y="868" width="80" height="30" as="geometry" />
        </mxCell>
        <mxCell id="YSiYtQKr4PyoB7rVC55X-99" value="TG_No" style="ellipse;whiteSpace=wrap;html=1;align=center;" vertex="1" parent="1">
          <mxGeometry x="280" y="888" width="80" height="30" as="geometry" />
        </mxCell>
        <mxCell id="YSiYtQKr4PyoB7rVC55X-100" value="C_Code" style="ellipse;whiteSpace=wrap;html=1;align=center;" vertex="1" parent="1">
          <mxGeometry x="390" y="868" width="80" height="30" as="geometry" />
        </mxCell>
        <mxCell id="YSiYtQKr4PyoB7rVC55X-101" value="CA_Marks" style="ellipse;whiteSpace=wrap;html=1;align=center;" vertex="1" parent="1">
          <mxGeometry x="370" y="698" width="80" height="30" as="geometry" />
        </mxCell>
        <mxCell id="YSiYtQKr4PyoB7rVC55X-102" value="Has" style="shape=rhombus;perimeter=rhombusPerimeter;whiteSpace=wrap;html=1;align=center;" vertex="1" parent="1">
          <mxGeometry x="602" y="598" width="110" height="60" as="geometry" />
        </mxCell>
        <mxCell id="YSiYtQKr4PyoB7rVC55X-103" value="" style="endArrow=none;html=1;rounded=0;exitX=0.25;exitY=1;exitDx=0;exitDy=0;entryX=0.5;entryY=0;entryDx=0;entryDy=0;" edge="1" parent="1" source="YSiYtQKr4PyoB7rVC55X-86" target="YSiYtQKr4PyoB7rVC55X-98">
          <mxGeometry relative="1" as="geometry">
            <mxPoint x="630" y="558" as="sourcePoint" />
            <mxPoint x="790" y="558" as="targetPoint" />
          </mxGeometry>
        </mxCell>
        <mxCell id="YSiYtQKr4PyoB7rVC55X-104" value="" style="endArrow=none;html=1;rounded=0;exitX=0.5;exitY=1;exitDx=0;exitDy=0;entryX=0.5;entryY=0;entryDx=0;entryDy=0;" edge="1" parent="1" source="YSiYtQKr4PyoB7rVC55X-86" target="YSiYtQKr4PyoB7rVC55X-99">
          <mxGeometry relative="1" as="geometry">
            <mxPoint x="630" y="558" as="sourcePoint" />
            <mxPoint x="790" y="558" as="targetPoint" />
          </mxGeometry>
        </mxCell>
        <mxCell id="YSiYtQKr4PyoB7rVC55X-105" value="" style="endArrow=none;html=1;rounded=0;exitX=0.75;exitY=1;exitDx=0;exitDy=0;entryX=0;entryY=0;entryDx=0;entryDy=0;" edge="1" parent="1" source="YSiYtQKr4PyoB7rVC55X-86" target="YSiYtQKr4PyoB7rVC55X-100">
          <mxGeometry relative="1" as="geometry">
            <mxPoint x="345" y="578" as="sourcePoint" />
            <mxPoint x="605" y="578" as="targetPoint" />
          </mxGeometry>
        </mxCell>
        <mxCell id="YSiYtQKr4PyoB7rVC55X-106" value="" style="endArrow=none;html=1;rounded=0;exitX=0.861;exitY=-0.031;exitDx=0;exitDy=0;exitPerimeter=0;entryX=0.5;entryY=1;entryDx=0;entryDy=0;" edge="1" parent="1" source="YSiYtQKr4PyoB7rVC55X-86" target="YSiYtQKr4PyoB7rVC55X-101">
          <mxGeometry relative="1" as="geometry">
            <mxPoint x="630" y="558" as="sourcePoint" />
            <mxPoint x="790" y="558" as="targetPoint" />
          </mxGeometry>
        </mxCell>
        <mxCell id="YSiYtQKr4PyoB7rVC55X-107" value="" style="endArrow=none;html=1;rounded=0;exitX=1;exitY=0.5;exitDx=0;exitDy=0;entryX=0;entryY=0.5;entryDx=0;entryDy=0;" edge="1" parent="1" source="YSiYtQKr4PyoB7rVC55X-86" target="YSiYtQKr4PyoB7rVC55X-102">
          <mxGeometry relative="1" as="geometry">
            <mxPoint x="540" y="548" as="sourcePoint" />
            <mxPoint x="790" y="558" as="targetPoint" />
          </mxGeometry>
        </mxCell>
        <mxCell id="YSiYtQKr4PyoB7rVC55X-108" value="" style="endArrow=none;html=1;rounded=0;entryX=-0.002;entryY=0.603;entryDx=0;entryDy=0;entryPerimeter=0;exitX=1;exitY=0.5;exitDx=0;exitDy=0;" edge="1" parent="1" source="YSiYtQKr4PyoB7rVC55X-102" target="YSiYtQKr4PyoB7rVC55X-1">
          <mxGeometry relative="1" as="geometry">
            <mxPoint x="600" y="598" as="sourcePoint" />
            <mxPoint x="880" y="528" as="targetPoint" />
          </mxGeometry>
        </mxCell>
        <mxCell id="YSiYtQKr4PyoB7rVC55X-109" value="Depends_On" style="shape=rhombus;double=1;perimeter=rhombusPerimeter;whiteSpace=wrap;html=1;align=center;" vertex="1" parent="1">
          <mxGeometry x="230" y="658" width="110" height="60" as="geometry" />
        </mxCell>
        <mxCell id="YSiYtQKr4PyoB7rVC55X-110" value="CA_Eligibility" style="shape=ext;margin=3;double=1;whiteSpace=wrap;html=1;align=center;" vertex="1" parent="1">
          <mxGeometry x="220" y="553" width="120" height="40" as="geometry" />
        </mxCell>
        <mxCell id="YSiYtQKr4PyoB7rVC55X-111" value="" style="endArrow=none;html=1;rounded=0;exitX=0.5;exitY=1;exitDx=0;exitDy=0;entryX=0.25;entryY=0;entryDx=0;entryDy=0;" edge="1" parent="1" source="YSiYtQKr4PyoB7rVC55X-109" target="YSiYtQKr4PyoB7rVC55X-86">
          <mxGeometry relative="1" as="geometry">
            <mxPoint x="410" y="698" as="sourcePoint" />
            <mxPoint x="570" y="698" as="targetPoint" />
          </mxGeometry>
        </mxCell>
        <mxCell id="YSiYtQKr4PyoB7rVC55X-112" value="" style="endArrow=none;html=1;rounded=0;exitX=0.56;exitY=1;exitDx=0;exitDy=0;exitPerimeter=0;entryX=0.467;entryY=0.028;entryDx=0;entryDy=0;entryPerimeter=0;" edge="1" parent="1" source="YSiYtQKr4PyoB7rVC55X-110" target="YSiYtQKr4PyoB7rVC55X-109">
          <mxGeometry relative="1" as="geometry">
            <mxPoint x="190" y="668" as="sourcePoint" />
            <mxPoint x="350" y="668" as="targetPoint" />
          </mxGeometry>
        </mxCell>
        <mxCell id="YSiYtQKr4PyoB7rVC55X-113" value="" style="endArrow=none;html=1;rounded=0;exitX=0.591;exitY=1.002;exitDx=0;exitDy=0;exitPerimeter=0;entryX=0.5;entryY=0;entryDx=0;entryDy=0;" edge="1" parent="1" source="YSiYtQKr4PyoB7rVC55X-110" target="YSiYtQKr4PyoB7rVC55X-109">
          <mxGeometry relative="1" as="geometry">
            <mxPoint x="190" y="668" as="sourcePoint" />
            <mxPoint x="350" y="668" as="targetPoint" />
          </mxGeometry>
        </mxCell>
        <mxCell id="YSiYtQKr4PyoB7rVC55X-114" value="CAE Id" style="ellipse;whiteSpace=wrap;html=1;align=center;fontStyle=4;" vertex="1" parent="1">
          <mxGeometry x="140" y="638" width="80" height="30" as="geometry" />
        </mxCell>
        <mxCell id="YSiYtQKr4PyoB7rVC55X-115" value="TG_No" style="ellipse;whiteSpace=wrap;html=1;align=center;" vertex="1" parent="1">
          <mxGeometry x="370" y="608" width="80" height="30" as="geometry" />
        </mxCell>
        <mxCell id="YSiYtQKr4PyoB7rVC55X-116" value="CAE_Status" style="ellipse;whiteSpace=wrap;html=1;align=center;" vertex="1" parent="1">
          <mxGeometry x="385" y="508" width="80" height="30" as="geometry" />
        </mxCell>
        <mxCell id="YSiYtQKr4PyoB7rVC55X-117" value="C-Code" style="ellipse;whiteSpace=wrap;html=1;align=center;" vertex="1" parent="1">
          <mxGeometry x="120" y="493" width="80" height="30" as="geometry" />
        </mxCell>
        <mxCell id="YSiYtQKr4PyoB7rVC55X-118" value="" style="endArrow=none;html=1;rounded=0;exitX=0.5;exitY=0;exitDx=0;exitDy=0;entryX=0.25;entryY=1;entryDx=0;entryDy=0;" edge="1" parent="1" source="YSiYtQKr4PyoB7rVC55X-114" target="YSiYtQKr4PyoB7rVC55X-110">
          <mxGeometry relative="1" as="geometry">
            <mxPoint x="250" y="558" as="sourcePoint" />
            <mxPoint x="410" y="558" as="targetPoint" />
          </mxGeometry>
        </mxCell>
        <mxCell id="YSiYtQKr4PyoB7rVC55X-119" value="" style="endArrow=none;html=1;rounded=0;entryX=0;entryY=0.5;entryDx=0;entryDy=0;exitX=0.938;exitY=1.002;exitDx=0;exitDy=0;exitPerimeter=0;" edge="1" parent="1" source="YSiYtQKr4PyoB7rVC55X-110" target="YSiYtQKr4PyoB7rVC55X-115">
          <mxGeometry relative="1" as="geometry">
            <mxPoint x="330" y="598" as="sourcePoint" />
            <mxPoint x="460" y="588" as="targetPoint" />
          </mxGeometry>
        </mxCell>
        <mxCell id="YSiYtQKr4PyoB7rVC55X-120" value="" style="endArrow=none;html=1;rounded=0;entryX=0;entryY=1;entryDx=0;entryDy=0;exitX=1;exitY=0.25;exitDx=0;exitDy=0;" edge="1" parent="1" source="YSiYtQKr4PyoB7rVC55X-110" target="YSiYtQKr4PyoB7rVC55X-116">
          <mxGeometry relative="1" as="geometry">
            <mxPoint x="190" y="568" as="sourcePoint" />
            <mxPoint x="460" y="588" as="targetPoint" />
          </mxGeometry>
        </mxCell>
        <mxCell id="YSiYtQKr4PyoB7rVC55X-121" value="" style="endArrow=none;html=1;rounded=0;entryX=1;entryY=1;entryDx=0;entryDy=0;exitX=0;exitY=0.25;exitDx=0;exitDy=0;" edge="1" parent="1" source="YSiYtQKr4PyoB7rVC55X-110" target="YSiYtQKr4PyoB7rVC55X-117">
          <mxGeometry relative="1" as="geometry">
            <mxPoint x="190" y="548" as="sourcePoint" />
            <mxPoint x="460" y="588" as="targetPoint" />
          </mxGeometry>
        </mxCell>
        <mxCell id="YSiYtQKr4PyoB7rVC55X-122" value="Depends_On" style="shape=rhombus;double=1;perimeter=rhombusPerimeter;whiteSpace=wrap;html=1;align=center;" vertex="1" parent="1">
          <mxGeometry x="390" y="218" width="110" height="60" as="geometry" />
        </mxCell>
        <mxCell id="YSiYtQKr4PyoB7rVC55X-123" value="Attendence_Eligibility" style="shape=ext;margin=3;double=1;whiteSpace=wrap;html=1;align=center;" vertex="1" parent="1">
          <mxGeometry x="280" y="113" width="130" height="40" as="geometry" />
        </mxCell>
        <mxCell id="YSiYtQKr4PyoB7rVC55X-124" value="AE Id" style="ellipse;whiteSpace=wrap;html=1;align=center;fontStyle=4;" vertex="1" parent="1">
          <mxGeometry x="180" y="48" width="80" height="30" as="geometry" />
        </mxCell>
        <mxCell id="YSiYtQKr4PyoB7rVC55X-125" value="C-Code" style="ellipse;whiteSpace=wrap;html=1;align=center;" vertex="1" parent="1">
          <mxGeometry x="320" y="28" width="80" height="30" as="geometry" />
        </mxCell>
        <mxCell id="YSiYtQKr4PyoB7rVC55X-126" value="" style="endArrow=none;html=1;rounded=0;exitX=0.5;exitY=1;exitDx=0;exitDy=0;entryX=0;entryY=0.25;entryDx=0;entryDy=0;" edge="1" parent="1" source="YSiYtQKr4PyoB7rVC55X-122" target="YSiYtQKr4PyoB7rVC55X-5">
          <mxGeometry relative="1" as="geometry">
            <mxPoint x="460" y="278" as="sourcePoint" />
            <mxPoint x="550" y="388" as="targetPoint" />
          </mxGeometry>
        </mxCell>
        <mxCell id="YSiYtQKr4PyoB7rVC55X-127" value="" style="endArrow=none;html=1;rounded=0;exitX=0.847;exitY=0.999;exitDx=0;exitDy=0;exitPerimeter=0;entryX=0.5;entryY=0;entryDx=0;entryDy=0;" edge="1" parent="1" source="YSiYtQKr4PyoB7rVC55X-123" target="YSiYtQKr4PyoB7rVC55X-122">
          <mxGeometry relative="1" as="geometry">
            <mxPoint x="290" y="158" as="sourcePoint" />
            <mxPoint x="460" y="208" as="targetPoint" />
          </mxGeometry>
        </mxCell>
        <mxCell id="YSiYtQKr4PyoB7rVC55X-128" value="" style="endArrow=none;html=1;rounded=0;exitX=0.821;exitY=0.999;exitDx=0;exitDy=0;exitPerimeter=0;entryX=0.478;entryY=0.026;entryDx=0;entryDy=0;entryPerimeter=0;" edge="1" parent="1" source="YSiYtQKr4PyoB7rVC55X-123" target="YSiYtQKr4PyoB7rVC55X-122">
          <mxGeometry relative="1" as="geometry">
            <mxPoint x="410" y="198" as="sourcePoint" />
            <mxPoint x="460" y="209" as="targetPoint" />
          </mxGeometry>
        </mxCell>
        <mxCell id="YSiYtQKr4PyoB7rVC55X-129" value="" style="endArrow=none;html=1;rounded=0;exitX=0.685;exitY=0.966;exitDx=0;exitDy=0;exitPerimeter=0;" edge="1" parent="1" source="YSiYtQKr4PyoB7rVC55X-124" target="YSiYtQKr4PyoB7rVC55X-123">
          <mxGeometry relative="1" as="geometry">
            <mxPoint x="220" y="78" as="sourcePoint" />
            <mxPoint x="410" y="178" as="targetPoint" />
          </mxGeometry>
        </mxCell>
        <mxCell id="YSiYtQKr4PyoB7rVC55X-130" value="" style="endArrow=none;html=1;rounded=0;exitX=0.5;exitY=1;exitDx=0;exitDy=0;" edge="1" parent="1" source="YSiYtQKr4PyoB7rVC55X-125" target="YSiYtQKr4PyoB7rVC55X-123">
          <mxGeometry relative="1" as="geometry">
            <mxPoint x="250" y="178" as="sourcePoint" />
            <mxPoint x="390" y="158" as="targetPoint" />
          </mxGeometry>
        </mxCell>
        <mxCell id="YSiYtQKr4PyoB7rVC55X-131" value="TG_No" style="ellipse;whiteSpace=wrap;html=1;align=center;" vertex="1" parent="1">
          <mxGeometry x="440" y="68" width="80" height="30" as="geometry" />
        </mxCell>
        <mxCell id="YSiYtQKr4PyoB7rVC55X-132" value="" style="endArrow=none;html=1;rounded=0;exitX=1;exitY=0.5;exitDx=0;exitDy=0;entryX=0.5;entryY=1;entryDx=0;entryDy=0;" edge="1" parent="1" source="YSiYtQKr4PyoB7rVC55X-123" target="YSiYtQKr4PyoB7rVC55X-131">
          <mxGeometry relative="1" as="geometry">
            <mxPoint x="430" y="248" as="sourcePoint" />
            <mxPoint x="590" y="248" as="targetPoint" />
          </mxGeometry>
        </mxCell>
        <mxCell id="YSiYtQKr4PyoB7rVC55X-133" value="End_Exam_Eligibility" style="shape=ext;margin=3;double=1;whiteSpace=wrap;html=1;align=center;" vertex="1" parent="1">
          <mxGeometry x="40" y="333" width="130" height="40" as="geometry" />
        </mxCell>
        <mxCell id="YSiYtQKr4PyoB7rVC55X-134" value="Depends_On" style="shape=rhombus;perimeter=rhombusPerimeter;whiteSpace=wrap;html=1;align=center;" vertex="1" parent="1">
          <mxGeometry x="180" y="433" width="110" height="60" as="geometry" />
        </mxCell>
        <mxCell id="YSiYtQKr4PyoB7rVC55X-138" value="Week_No" style="ellipse;whiteSpace=wrap;html=1;align=center;" vertex="1" parent="1">
          <mxGeometry x="540" y="428" width="90" height="30" as="geometry" />
        </mxCell>
        <mxCell id="YSiYtQKr4PyoB7rVC55X-139" value="" style="endArrow=none;html=1;rounded=0;exitX=1;exitY=0.5;exitDx=0;exitDy=0;entryX=0;entryY=0.5;entryDx=0;entryDy=0;" edge="1" parent="1" source="YSiYtQKr4PyoB7rVC55X-138" target="YSiYtQKr4PyoB7rVC55X-95">
          <mxGeometry relative="1" as="geometry">
            <mxPoint x="590" y="448" as="sourcePoint" />
            <mxPoint x="750" y="448" as="targetPoint" />
          </mxGeometry>
        </mxCell>
        <mxCell id="YSiYtQKr4PyoB7rVC55X-140" value="Technical_Officer" style="rounded=0;whiteSpace=wrap;html=1;" vertex="1" parent="1">
          <mxGeometry x="630" y="88" width="120" height="40" as="geometry" />
        </mxCell>
        <mxCell id="YSiYtQKr4PyoB7rVC55X-141" value="Mark" style="shape=rhombus;perimeter=rhombusPerimeter;whiteSpace=wrap;html=1;align=center;" vertex="1" parent="1">
          <mxGeometry x="530" y="183" width="110" height="60" as="geometry" />
        </mxCell>
        <mxCell id="YSiYtQKr4PyoB7rVC55X-145" value="" style="endArrow=none;html=1;rounded=0;exitX=0.5;exitY=0;exitDx=0;exitDy=0;entryX=0;entryY=0.5;entryDx=0;entryDy=0;" edge="1" parent="1" source="YSiYtQKr4PyoB7rVC55X-141" target="YSiYtQKr4PyoB7rVC55X-140">
          <mxGeometry width="50" height="50" relative="1" as="geometry">
            <mxPoint x="620" y="123" as="sourcePoint" />
            <mxPoint x="670" y="73" as="targetPoint" />
          </mxGeometry>
        </mxCell>
        <mxCell id="YSiYtQKr4PyoB7rVC55X-146" value="" style="endArrow=none;html=1;rounded=0;entryX=0.5;entryY=1;entryDx=0;entryDy=0;exitX=0;exitY=0;exitDx=0;exitDy=0;" edge="1" parent="1" source="YSiYtQKr4PyoB7rVC55X-5" target="YSiYtQKr4PyoB7rVC55X-141">
          <mxGeometry width="50" height="50" relative="1" as="geometry">
            <mxPoint x="560" y="218" as="sourcePoint" />
            <mxPoint x="610" y="168" as="targetPoint" />
          </mxGeometry>
        </mxCell>
        <mxCell id="YSiYtQKr4PyoB7rVC55X-147" value="TOID" style="ellipse;whiteSpace=wrap;html=1;align=center;fontStyle=4;" vertex="1" parent="1">
          <mxGeometry x="720" y="18" width="80" height="30" as="geometry" />
        </mxCell>
        <mxCell id="YSiYtQKr4PyoB7rVC55X-148" value="Name" style="ellipse;whiteSpace=wrap;html=1;align=center;" vertex="1" parent="1">
          <mxGeometry x="805" y="53" width="80" height="30" as="geometry" />
        </mxCell>
        <mxCell id="YSiYtQKr4PyoB7rVC55X-149" value="TOL_name" style="ellipse;whiteSpace=wrap;html=1;align=center;" vertex="1" parent="1">
          <mxGeometry x="910" y="18" width="80" height="30" as="geometry" />
        </mxCell>
        <mxCell id="YSiYtQKr4PyoB7rVC55X-150" value="TOF_name" style="ellipse;whiteSpace=wrap;html=1;align=center;" vertex="1" parent="1">
          <mxGeometry x="920" y="68" width="80" height="30" as="geometry" />
        </mxCell>
        <mxCell id="YSiYtQKr4PyoB7rVC55X-152" value="" style="endArrow=none;html=1;rounded=0;entryX=0;entryY=0.5;entryDx=0;entryDy=0;exitX=1;exitY=0.5;exitDx=0;exitDy=0;" edge="1" parent="1" source="YSiYtQKr4PyoB7rVC55X-140" target="YSiYtQKr4PyoB7rVC55X-148">
          <mxGeometry width="50" height="50" relative="1" as="geometry">
            <mxPoint x="800" y="188" as="sourcePoint" />
            <mxPoint x="850" y="138" as="targetPoint" />
          </mxGeometry>
        </mxCell>
        <mxCell id="YSiYtQKr4PyoB7rVC55X-153" value="" style="endArrow=none;html=1;rounded=0;entryX=0;entryY=0.5;entryDx=0;entryDy=0;exitX=1;exitY=0;exitDx=0;exitDy=0;" edge="1" parent="1" source="YSiYtQKr4PyoB7rVC55X-148" target="YSiYtQKr4PyoB7rVC55X-149">
          <mxGeometry width="50" height="50" relative="1" as="geometry">
            <mxPoint x="800" y="188" as="sourcePoint" />
            <mxPoint x="850" y="138" as="targetPoint" />
          </mxGeometry>
        </mxCell>
        <mxCell id="YSiYtQKr4PyoB7rVC55X-154" value="" style="endArrow=none;html=1;rounded=0;entryX=0;entryY=0.5;entryDx=0;entryDy=0;exitX=1;exitY=1;exitDx=0;exitDy=0;" edge="1" parent="1" source="YSiYtQKr4PyoB7rVC55X-148" target="YSiYtQKr4PyoB7rVC55X-150">
          <mxGeometry width="50" height="50" relative="1" as="geometry">
            <mxPoint x="800" y="188" as="sourcePoint" />
            <mxPoint x="850" y="138" as="targetPoint" />
          </mxGeometry>
        </mxCell>
        <mxCell id="YSiYtQKr4PyoB7rVC55X-155" value="" style="endArrow=none;html=1;rounded=0;entryX=0;entryY=0.5;entryDx=0;entryDy=0;exitX=0.75;exitY=0;exitDx=0;exitDy=0;" edge="1" parent="1" source="YSiYtQKr4PyoB7rVC55X-140" target="YSiYtQKr4PyoB7rVC55X-147">
          <mxGeometry width="50" height="50" relative="1" as="geometry">
            <mxPoint x="700" y="178" as="sourcePoint" />
            <mxPoint x="750" y="128" as="targetPoint" />
          </mxGeometry>
        </mxCell>
        <mxCell id="YSiYtQKr4PyoB7rVC55X-157" value="Depends_On" style="shape=rhombus;perimeter=rhombusPerimeter;whiteSpace=wrap;html=1;align=center;" vertex="1" parent="1">
          <mxGeometry x="170" y="186" width="110" height="60" as="geometry" />
        </mxCell>
        <mxCell id="YSiYtQKr4PyoB7rVC55X-159" value="EEE Id" style="ellipse;whiteSpace=wrap;html=1;align=center;fontStyle=4;" vertex="1" parent="1">
          <mxGeometry x="10" y="413" width="80" height="30" as="geometry" />
        </mxCell>
        <mxCell id="YSiYtQKr4PyoB7rVC55X-160" value="C-Code" style="ellipse;whiteSpace=wrap;html=1;align=center;" vertex="1" parent="1">
          <mxGeometry x="30" y="248" width="80" height="30" as="geometry" />
        </mxCell>
        <mxCell id="YSiYtQKr4PyoB7rVC55X-162" value="TG_No" style="ellipse;whiteSpace=wrap;html=1;align=center;" vertex="1" parent="1">
          <mxGeometry x="200" y="293" width="80" height="30" as="geometry" />
        </mxCell>
        <mxCell id="YSiYtQKr4PyoB7rVC55X-165" value="EEE_Status" style="ellipse;whiteSpace=wrap;html=1;align=center;" vertex="1" parent="1">
          <mxGeometry x="200" y="368" width="80" height="30" as="geometry" />
        </mxCell>
        <mxCell id="YSiYtQKr4PyoB7rVC55X-166" value="" style="endArrow=none;html=1;rounded=0;entryX=0.5;entryY=1;entryDx=0;entryDy=0;exitX=0.25;exitY=0;exitDx=0;exitDy=0;" edge="1" parent="1" source="YSiYtQKr4PyoB7rVC55X-133" target="YSiYtQKr4PyoB7rVC55X-160">
          <mxGeometry width="50" height="50" relative="1" as="geometry">
            <mxPoint x="30" y="418" as="sourcePoint" />
            <mxPoint x="80" y="368" as="targetPoint" />
          </mxGeometry>
        </mxCell>
        <mxCell id="YSiYtQKr4PyoB7rVC55X-167" value="" style="endArrow=none;html=1;rounded=0;entryX=0.25;entryY=1;entryDx=0;entryDy=0;exitX=0.5;exitY=0;exitDx=0;exitDy=0;" edge="1" parent="1" source="YSiYtQKr4PyoB7rVC55X-159" target="YSiYtQKr4PyoB7rVC55X-133">
          <mxGeometry width="50" height="50" relative="1" as="geometry">
            <mxPoint x="30" y="418" as="sourcePoint" />
            <mxPoint x="80" y="368" as="targetPoint" />
          </mxGeometry>
        </mxCell>
        <mxCell id="YSiYtQKr4PyoB7rVC55X-168" value="" style="endArrow=none;html=1;rounded=0;entryX=0;entryY=0.5;entryDx=0;entryDy=0;exitX=1;exitY=0;exitDx=0;exitDy=0;" edge="1" parent="1" source="YSiYtQKr4PyoB7rVC55X-133" target="YSiYtQKr4PyoB7rVC55X-162">
          <mxGeometry width="50" height="50" relative="1" as="geometry">
            <mxPoint x="100" y="408" as="sourcePoint" />
            <mxPoint x="150" y="358" as="targetPoint" />
          </mxGeometry>
        </mxCell>
        <mxCell id="YSiYtQKr4PyoB7rVC55X-169" value="" style="endArrow=none;html=1;rounded=0;entryX=0;entryY=0.5;entryDx=0;entryDy=0;exitX=1;exitY=1;exitDx=0;exitDy=0;" edge="1" parent="1" source="YSiYtQKr4PyoB7rVC55X-133" target="YSiYtQKr4PyoB7rVC55X-165">
          <mxGeometry width="50" height="50" relative="1" as="geometry">
            <mxPoint x="100" y="408" as="sourcePoint" />
            <mxPoint x="150" y="358" as="targetPoint" />
          </mxGeometry>
        </mxCell>
        <mxCell id="YSiYtQKr4PyoB7rVC55X-170" value="Belong" style="shape=rhombus;perimeter=rhombusPerimeter;whiteSpace=wrap;html=1;align=center;" vertex="1" parent="1">
          <mxGeometry x="1105" y="78" width="110" height="60" as="geometry" />
        </mxCell>
        <mxCell id="YSiYtQKr4PyoB7rVC55X-171" value="" style="endArrow=none;html=1;rounded=0;entryX=0;entryY=0.5;entryDx=0;entryDy=0;exitX=1;exitY=0.5;exitDx=0;exitDy=0;" edge="1" parent="1" source="YSiYtQKr4PyoB7rVC55X-5" target="YSiYtQKr4PyoB7rVC55X-220">
          <mxGeometry width="50" height="50" relative="1" as="geometry">
            <mxPoint x="752.0000000000005" y="183" as="sourcePoint" />
            <mxPoint x="1122" y="153" as="targetPoint" />
          </mxGeometry>
        </mxCell>
        <mxCell id="YSiYtQKr4PyoB7rVC55X-172" value="" style="endArrow=none;html=1;rounded=0;entryX=0;entryY=0.5;entryDx=0;entryDy=0;exitX=1;exitY=0.5;exitDx=0;exitDy=0;" edge="1" parent="1" source="YSiYtQKr4PyoB7rVC55X-170" target="YSiYtQKr4PyoB7rVC55X-6">
          <mxGeometry width="50" height="50" relative="1" as="geometry">
            <mxPoint x="1230" y="238" as="sourcePoint" />
            <mxPoint x="1280" y="188" as="targetPoint" />
          </mxGeometry>
        </mxCell>
        <mxCell id="YSiYtQKr4PyoB7rVC55X-173" value="Address" style="ellipse;whiteSpace=wrap;html=1;align=center;" vertex="1" parent="1">
          <mxGeometry x="610" y="8" width="80" height="30" as="geometry" />
        </mxCell>
        <mxCell id="YSiYtQKr4PyoB7rVC55X-175" value="" style="endArrow=none;html=1;rounded=0;entryX=0.25;entryY=0;entryDx=0;entryDy=0;exitX=0.5;exitY=1;exitDx=0;exitDy=0;" edge="1" parent="1" source="YSiYtQKr4PyoB7rVC55X-173" target="YSiYtQKr4PyoB7rVC55X-140">
          <mxGeometry width="50" height="50" relative="1" as="geometry">
            <mxPoint x="570" y="58" as="sourcePoint" />
            <mxPoint x="940" y="78" as="targetPoint" />
          </mxGeometry>
        </mxCell>
        <mxCell id="YSiYtQKr4PyoB7rVC55X-176" value="TO_PH_NO" style="ellipse;shape=doubleEllipse;margin=3;whiteSpace=wrap;html=1;align=center;" vertex="1" parent="1">
          <mxGeometry x="660" y="148" width="100" height="40" as="geometry" />
        </mxCell>
        <mxCell id="YSiYtQKr4PyoB7rVC55X-177" value="" style="endArrow=none;html=1;rounded=0;entryX=0.5;entryY=0;entryDx=0;entryDy=0;exitX=0.5;exitY=1;exitDx=0;exitDy=0;" edge="1" parent="1" source="YSiYtQKr4PyoB7rVC55X-140" target="YSiYtQKr4PyoB7rVC55X-176">
          <mxGeometry width="50" height="50" relative="1" as="geometry">
            <mxPoint x="660" y="148" as="sourcePoint" />
            <mxPoint x="1030" y="168" as="targetPoint" />
          </mxGeometry>
        </mxCell>
        <mxCell id="YSiYtQKr4PyoB7rVC55X-178" value="TO_Email" style="ellipse;whiteSpace=wrap;html=1;align=center;" vertex="1" parent="1">
          <mxGeometry x="520" y="28" width="80" height="30" as="geometry" />
        </mxCell>
        <mxCell id="YSiYtQKr4PyoB7rVC55X-179" value="" style="endArrow=none;html=1;rounded=0;exitX=0;exitY=0;exitDx=0;exitDy=0;entryX=0.5;entryY=1;entryDx=0;entryDy=0;" edge="1" parent="1" source="YSiYtQKr4PyoB7rVC55X-140" target="YSiYtQKr4PyoB7rVC55X-178">
          <mxGeometry width="50" height="50" relative="1" as="geometry">
            <mxPoint x="555" y="153" as="sourcePoint" />
            <mxPoint x="600" y="78" as="targetPoint" />
          </mxGeometry>
        </mxCell>
        <mxCell id="YSiYtQKr4PyoB7rVC55X-180" value="1" style="text;html=1;align=center;verticalAlign=middle;resizable=0;points=[];autosize=1;strokeColor=none;fillColor=none;" vertex="1" parent="1">
          <mxGeometry x="1410" y="198" width="30" height="30" as="geometry" />
        </mxCell>
        <mxCell id="YSiYtQKr4PyoB7rVC55X-181" value="m" style="text;html=1;align=center;verticalAlign=middle;resizable=0;points=[];autosize=1;strokeColor=none;fillColor=none;" vertex="1" parent="1">
          <mxGeometry x="748" y="104" width="30" height="30" as="geometry" />
        </mxCell>
        <mxCell id="YSiYtQKr4PyoB7rVC55X-182" value="Lec_Address" style="ellipse;whiteSpace=wrap;html=1;align=center;fontStyle=4;" vertex="1" parent="1">
          <mxGeometry x="1340" y="838" width="80" height="30" as="geometry" />
        </mxCell>
        <mxCell id="YSiYtQKr4PyoB7rVC55X-184" value="Lec_PH_NO" style="ellipse;shape=doubleEllipse;margin=3;whiteSpace=wrap;html=1;align=center;" vertex="1" parent="1">
          <mxGeometry x="1590" y="768" width="100" height="40" as="geometry" />
        </mxCell>
        <mxCell id="YSiYtQKr4PyoB7rVC55X-185" value="Lec_Email" style="ellipse;whiteSpace=wrap;html=1;align=center;" vertex="1" parent="1">
          <mxGeometry x="1470" y="718" width="80" height="30" as="geometry" />
        </mxCell>
        <mxCell id="YSiYtQKr4PyoB7rVC55X-186" value="" style="endArrow=none;html=1;rounded=0;entryX=1;entryY=0.5;entryDx=0;entryDy=0;exitX=0;exitY=0.5;exitDx=0;exitDy=0;" edge="1" parent="1" source="YSiYtQKr4PyoB7rVC55X-4" target="YSiYtQKr4PyoB7rVC55X-182">
          <mxGeometry relative="1" as="geometry">
            <mxPoint x="1470" y="818" as="sourcePoint" />
            <mxPoint x="1400" y="838" as="targetPoint" />
          </mxGeometry>
        </mxCell>
        <mxCell id="YSiYtQKr4PyoB7rVC55X-187" value="" style="endArrow=none;html=1;rounded=0;exitX=0.5;exitY=1;exitDx=0;exitDy=0;entryX=0.75;entryY=0;entryDx=0;entryDy=0;" edge="1" parent="1" source="YSiYtQKr4PyoB7rVC55X-185" target="YSiYtQKr4PyoB7rVC55X-4">
          <mxGeometry relative="1" as="geometry">
            <mxPoint x="1580" y="748" as="sourcePoint" />
            <mxPoint x="1530" y="788" as="targetPoint" />
          </mxGeometry>
        </mxCell>
        <mxCell id="YSiYtQKr4PyoB7rVC55X-188" value="" style="endArrow=none;html=1;rounded=0;exitX=0;exitY=1;exitDx=0;exitDy=0;entryX=1;entryY=0.5;entryDx=0;entryDy=0;" edge="1" parent="1" source="YSiYtQKr4PyoB7rVC55X-184" target="YSiYtQKr4PyoB7rVC55X-4">
          <mxGeometry relative="1" as="geometry">
            <mxPoint x="1650" y="828" as="sourcePoint" />
            <mxPoint x="1600" y="868" as="targetPoint" />
          </mxGeometry>
        </mxCell>
        <mxCell id="YSiYtQKr4PyoB7rVC55X-190" value="1" style="text;html=1;align=center;verticalAlign=middle;resizable=0;points=[];autosize=1;strokeColor=none;fillColor=none;" vertex="1" parent="1">
          <mxGeometry x="1377" y="523" width="30" height="30" as="geometry" />
        </mxCell>
        <mxCell id="YSiYtQKr4PyoB7rVC55X-191" value="1" style="text;html=1;align=center;verticalAlign=middle;resizable=0;points=[];autosize=1;strokeColor=none;fillColor=none;" vertex="1" parent="1">
          <mxGeometry x="1498" y="784" width="30" height="30" as="geometry" />
        </mxCell>
        <mxCell id="YSiYtQKr4PyoB7rVC55X-192" value="Belong" style="shape=rhombus;perimeter=rhombusPerimeter;whiteSpace=wrap;html=1;align=center;" vertex="1" parent="1">
          <mxGeometry x="1580" y="528" width="110" height="60" as="geometry" />
        </mxCell>
        <mxCell id="YSiYtQKr4PyoB7rVC55X-193" value="" style="endArrow=none;html=1;rounded=0;entryX=1;entryY=0;entryDx=0;entryDy=0;exitX=0.5;exitY=1;exitDx=0;exitDy=0;" edge="1" source="YSiYtQKr4PyoB7rVC55X-192" parent="1" target="YSiYtQKr4PyoB7rVC55X-4">
          <mxGeometry width="50" height="50" relative="1" as="geometry">
            <mxPoint x="1670" y="508" as="sourcePoint" />
            <mxPoint x="1900" y="643" as="targetPoint" />
          </mxGeometry>
        </mxCell>
        <mxCell id="YSiYtQKr4PyoB7rVC55X-194" value="" style="endArrow=none;html=1;rounded=0;entryX=0.5;entryY=0;entryDx=0;entryDy=0;exitX=1;exitY=1;exitDx=0;exitDy=0;" edge="1" target="YSiYtQKr4PyoB7rVC55X-192" parent="1" source="YSiYtQKr4PyoB7rVC55X-6">
          <mxGeometry width="50" height="50" relative="1" as="geometry">
            <mxPoint x="1210" y="538" as="sourcePoint" />
            <mxPoint x="1250" y="608" as="targetPoint" />
          </mxGeometry>
        </mxCell>
        <mxCell id="YSiYtQKr4PyoB7rVC55X-195" value="1" style="text;html=1;align=center;verticalAlign=middle;resizable=0;points=[];autosize=1;strokeColor=none;fillColor=none;" vertex="1" parent="1">
          <mxGeometry x="1555" y="246" width="30" height="30" as="geometry" />
        </mxCell>
        <mxCell id="YSiYtQKr4PyoB7rVC55X-196" value="1" style="text;html=1;align=center;verticalAlign=middle;resizable=0;points=[];autosize=1;strokeColor=none;fillColor=none;" vertex="1" parent="1">
          <mxGeometry x="1551" y="782" width="30" height="30" as="geometry" />
        </mxCell>
        <mxCell id="YSiYtQKr4PyoB7rVC55X-197" value="St_Address" style="ellipse;whiteSpace=wrap;html=1;align=center;" vertex="1" parent="1">
          <mxGeometry x="1072" y="443" width="80" height="30" as="geometry" />
        </mxCell>
        <mxCell id="YSiYtQKr4PyoB7rVC55X-198" value="" style="endArrow=none;html=1;rounded=0;exitX=1;exitY=0;exitDx=0;exitDy=0;entryX=0;entryY=0.5;entryDx=0;entryDy=0;" edge="1" parent="1" source="YSiYtQKr4PyoB7rVC55X-1" target="YSiYtQKr4PyoB7rVC55X-197">
          <mxGeometry relative="1" as="geometry">
            <mxPoint x="1020" y="518" as="sourcePoint" />
            <mxPoint x="1060" y="458" as="targetPoint" />
          </mxGeometry>
        </mxCell>
        <mxCell id="YSiYtQKr4PyoB7rVC55X-199" value="St_PHNO" style="ellipse;whiteSpace=wrap;html=1;align=center;" vertex="1" parent="1">
          <mxGeometry x="992" y="578" width="80" height="30" as="geometry" />
        </mxCell>
        <mxCell id="YSiYtQKr4PyoB7rVC55X-200" value="" style="endArrow=none;html=1;rounded=0;exitX=0.75;exitY=1;exitDx=0;exitDy=0;entryX=0.5;entryY=0;entryDx=0;entryDy=0;" edge="1" parent="1" source="YSiYtQKr4PyoB7rVC55X-1" target="YSiYtQKr4PyoB7rVC55X-199">
          <mxGeometry relative="1" as="geometry">
            <mxPoint x="985" y="538" as="sourcePoint" />
            <mxPoint x="970" y="638" as="targetPoint" />
          </mxGeometry>
        </mxCell>
        <mxCell id="YSiYtQKr4PyoB7rVC55X-201" value="1" style="text;html=1;align=center;verticalAlign=middle;resizable=0;points=[];autosize=1;strokeColor=none;fillColor=none;" vertex="1" parent="1">
          <mxGeometry x="1009" y="763" width="30" height="30" as="geometry" />
        </mxCell>
        <mxCell id="YSiYtQKr4PyoB7rVC55X-202" value="m" style="text;html=1;align=center;verticalAlign=middle;resizable=0;points=[];autosize=1;strokeColor=none;fillColor=none;" vertex="1" parent="1">
          <mxGeometry x="935" y="533" width="30" height="30" as="geometry" />
        </mxCell>
        <mxCell id="YSiYtQKr4PyoB7rVC55X-204" value="1" style="text;html=1;align=center;verticalAlign=middle;resizable=0;points=[];autosize=1;strokeColor=none;fillColor=none;" vertex="1" parent="1">
          <mxGeometry x="390" y="798" width="30" height="30" as="geometry" />
        </mxCell>
        <mxCell id="YSiYtQKr4PyoB7rVC55X-205" value="1" style="text;html=1;align=center;verticalAlign=middle;resizable=0;points=[];autosize=1;strokeColor=none;fillColor=none;" vertex="1" parent="1">
          <mxGeometry x="722" y="722" width="30" height="30" as="geometry" />
        </mxCell>
        <mxCell id="YSiYtQKr4PyoB7rVC55X-206" value="m" style="text;html=1;align=center;verticalAlign=middle;resizable=0;points=[];autosize=1;strokeColor=none;fillColor=none;" vertex="1" parent="1">
          <mxGeometry x="893" y="530" width="30" height="30" as="geometry" />
        </mxCell>
        <mxCell id="YSiYtQKr4PyoB7rVC55X-207" value="m" style="text;html=1;align=center;verticalAlign=middle;resizable=0;points=[];autosize=1;strokeColor=none;fillColor=none;" vertex="1" parent="1">
          <mxGeometry x="873" y="504" width="30" height="30" as="geometry" />
        </mxCell>
        <mxCell id="YSiYtQKr4PyoB7rVC55X-208" value="m" style="text;html=1;align=center;verticalAlign=middle;resizable=0;points=[];autosize=1;strokeColor=none;fillColor=none;" vertex="1" parent="1">
          <mxGeometry x="943" y="318" width="30" height="30" as="geometry" />
        </mxCell>
        <mxCell id="YSiYtQKr4PyoB7rVC55X-209" value="1" style="text;html=1;align=center;verticalAlign=middle;resizable=0;points=[];autosize=1;strokeColor=none;fillColor=none;" vertex="1" parent="1">
          <mxGeometry x="938" y="473" width="30" height="30" as="geometry" />
        </mxCell>
        <mxCell id="YSiYtQKr4PyoB7rVC55X-212" value="m" style="text;html=1;align=center;verticalAlign=middle;resizable=0;points=[];autosize=1;strokeColor=none;fillColor=none;" vertex="1" parent="1">
          <mxGeometry x="602" y="93" width="30" height="30" as="geometry" />
        </mxCell>
        <mxCell id="YSiYtQKr4PyoB7rVC55X-213" value="n" style="text;html=1;align=center;verticalAlign=middle;resizable=0;points=[];autosize=1;strokeColor=none;fillColor=none;" vertex="1" parent="1">
          <mxGeometry x="611" y="262" width="30" height="30" as="geometry" />
        </mxCell>
        <mxCell id="YSiYtQKr4PyoB7rVC55X-214" value="m" style="text;html=1;align=center;verticalAlign=middle;resizable=0;points=[];autosize=1;strokeColor=none;fillColor=none;" vertex="1" parent="1">
          <mxGeometry x="1017" y="493" width="30" height="30" as="geometry" />
        </mxCell>
        <mxCell id="YSiYtQKr4PyoB7rVC55X-215" value="n" style="text;html=1;align=center;verticalAlign=middle;resizable=0;points=[];autosize=1;strokeColor=none;fillColor=none;" vertex="1" parent="1">
          <mxGeometry x="1293" y="482" width="30" height="30" as="geometry" />
        </mxCell>
        <mxCell id="YSiYtQKr4PyoB7rVC55X-216" value="1" style="text;html=1;align=center;verticalAlign=middle;resizable=0;points=[];autosize=1;strokeColor=none;fillColor=none;" vertex="1" parent="1">
          <mxGeometry x="1445" y="250" width="30" height="30" as="geometry" />
        </mxCell>
        <mxCell id="YSiYtQKr4PyoB7rVC55X-217" value="m" style="text;html=1;align=center;verticalAlign=middle;resizable=0;points=[];autosize=1;strokeColor=none;fillColor=none;" vertex="1" parent="1">
          <mxGeometry x="1357" y="463" width="30" height="30" as="geometry" />
        </mxCell>
        <mxCell id="YSiYtQKr4PyoB7rVC55X-218" value="1" style="text;html=1;align=center;verticalAlign=middle;resizable=0;points=[];autosize=1;strokeColor=none;fillColor=none;" vertex="1" parent="1">
          <mxGeometry x="658" y="322" width="30" height="30" as="geometry" />
        </mxCell>
        <mxCell id="YSiYtQKr4PyoB7rVC55X-219" value="1" style="text;html=1;align=center;verticalAlign=middle;resizable=0;points=[];autosize=1;strokeColor=none;fillColor=none;" vertex="1" parent="1">
          <mxGeometry x="880" y="472" width="30" height="30" as="geometry" />
        </mxCell>
        <mxCell id="YSiYtQKr4PyoB7rVC55X-220" value="Has" style="shape=rhombus;perimeter=rhombusPerimeter;whiteSpace=wrap;html=1;align=center;" vertex="1" parent="1">
          <mxGeometry x="990" y="138" width="110" height="60" as="geometry" />
        </mxCell>
        <mxCell id="YSiYtQKr4PyoB7rVC55X-221" value="" style="endArrow=none;html=1;rounded=0;entryX=1;entryY=0.5;entryDx=0;entryDy=0;exitX=0.904;exitY=0.194;exitDx=0;exitDy=0;exitPerimeter=0;" edge="1" parent="1" source="YSiYtQKr4PyoB7rVC55X-215" target="YSiYtQKr4PyoB7rVC55X-220">
          <mxGeometry width="50" height="50" relative="1" as="geometry">
            <mxPoint x="1039" y="333" as="sourcePoint" />
            <mxPoint x="1249" y="173" as="targetPoint" />
          </mxGeometry>
        </mxCell>
        <mxCell id="YSiYtQKr4PyoB7rVC55X-222" value="1" style="text;html=1;align=center;verticalAlign=middle;resizable=0;points=[];autosize=1;strokeColor=none;fillColor=none;" vertex="1" parent="1">
          <mxGeometry x="1309" y="462" width="30" height="30" as="geometry" />
        </mxCell>
        <mxCell id="YSiYtQKr4PyoB7rVC55X-223" value="m" style="text;html=1;align=center;verticalAlign=middle;resizable=0;points=[];autosize=1;strokeColor=none;fillColor=none;" vertex="1" parent="1">
          <mxGeometry x="735" y="275" width="30" height="30" as="geometry" />
        </mxCell>
        <mxCell id="YSiYtQKr4PyoB7rVC55X-227" value="" style="endArrow=none;html=1;rounded=0;entryX=0;entryY=0.5;entryDx=0;entryDy=0;exitX=1;exitY=1;exitDx=0;exitDy=0;" edge="1" parent="1" source="YSiYtQKr4PyoB7rVC55X-140" target="YSiYtQKr4PyoB7rVC55X-170">
          <mxGeometry width="50" height="50" relative="1" as="geometry">
            <mxPoint x="748" y="253" as="sourcePoint" />
            <mxPoint x="998" y="113" as="targetPoint" />
          </mxGeometry>
        </mxCell>
        <mxCell id="YSiYtQKr4PyoB7rVC55X-228" value="1" style="text;html=1;align=center;verticalAlign=middle;resizable=0;points=[];autosize=1;strokeColor=none;fillColor=none;" vertex="1" parent="1">
          <mxGeometry x="290" y="763" width="30" height="30" as="geometry" />
        </mxCell>
        <mxCell id="YSiYtQKr4PyoB7rVC55X-229" value="1" style="text;html=1;align=center;verticalAlign=middle;resizable=0;points=[];autosize=1;strokeColor=none;fillColor=none;" vertex="1" parent="1">
          <mxGeometry x="285" y="586" width="30" height="30" as="geometry" />
        </mxCell>
        <mxCell id="YSiYtQKr4PyoB7rVC55X-235" value="" style="shape=link;html=1;rounded=0;entryX=0.25;entryY=1;entryDx=0;entryDy=0;exitX=1;exitY=0.5;exitDx=0;exitDy=0;" edge="1" parent="1" source="YSiYtQKr4PyoB7rVC55X-157" target="YSiYtQKr4PyoB7rVC55X-123">
          <mxGeometry relative="1" as="geometry">
            <mxPoint x="210" y="276.63" as="sourcePoint" />
            <mxPoint x="370" y="276.63" as="targetPoint" />
          </mxGeometry>
        </mxCell>
        <mxCell id="YSiYtQKr4PyoB7rVC55X-236" value="1" style="resizable=0;html=1;whiteSpace=wrap;align=right;verticalAlign=bottom;" connectable="0" vertex="1" parent="YSiYtQKr4PyoB7rVC55X-235">
          <mxGeometry x="1" relative="1" as="geometry">
            <mxPoint x="12" y="19" as="offset" />
          </mxGeometry>
        </mxCell>
        <mxCell id="YSiYtQKr4PyoB7rVC55X-237" value="" style="shape=link;html=1;rounded=0;entryX=0.75;entryY=0;entryDx=0;entryDy=0;exitX=0;exitY=0.5;exitDx=0;exitDy=0;" edge="1" parent="1" source="YSiYtQKr4PyoB7rVC55X-157" target="YSiYtQKr4PyoB7rVC55X-133">
          <mxGeometry relative="1" as="geometry">
            <mxPoint x="130" y="306" as="sourcePoint" />
            <mxPoint x="163" y="243" as="targetPoint" />
          </mxGeometry>
        </mxCell>
        <mxCell id="YSiYtQKr4PyoB7rVC55X-238" value="1" style="resizable=0;html=1;whiteSpace=wrap;align=right;verticalAlign=bottom;" connectable="0" vertex="1" parent="YSiYtQKr4PyoB7rVC55X-237">
          <mxGeometry x="1" relative="1" as="geometry">
            <mxPoint x="20" y="-2" as="offset" />
          </mxGeometry>
        </mxCell>
        <mxCell id="YSiYtQKr4PyoB7rVC55X-241" value="" style="shape=link;html=1;rounded=0;exitX=0.5;exitY=0;exitDx=0;exitDy=0;entryX=0.75;entryY=1;entryDx=0;entryDy=0;" edge="1" parent="1" source="YSiYtQKr4PyoB7rVC55X-134" target="YSiYtQKr4PyoB7rVC55X-133">
          <mxGeometry relative="1" as="geometry">
            <mxPoint x="160" y="458" as="sourcePoint" />
            <mxPoint x="320" y="458" as="targetPoint" />
          </mxGeometry>
        </mxCell>
        <mxCell id="YSiYtQKr4PyoB7rVC55X-242" value="1" style="resizable=0;html=1;whiteSpace=wrap;align=right;verticalAlign=bottom;" connectable="0" vertex="1" parent="YSiYtQKr4PyoB7rVC55X-241">
          <mxGeometry x="1" relative="1" as="geometry">
            <mxPoint x="4" y="22" as="offset" />
          </mxGeometry>
        </mxCell>
        <mxCell id="YSiYtQKr4PyoB7rVC55X-243" value="" style="shape=link;html=1;rounded=0;exitX=0.5;exitY=1;exitDx=0;exitDy=0;entryX=0.5;entryY=0;entryDx=0;entryDy=0;" edge="1" parent="1" source="YSiYtQKr4PyoB7rVC55X-134" target="YSiYtQKr4PyoB7rVC55X-110">
          <mxGeometry relative="1" as="geometry">
            <mxPoint x="387.5" y="589" as="sourcePoint" />
            <mxPoint x="270.5" y="534" as="targetPoint" />
          </mxGeometry>
        </mxCell>
        <mxCell id="YSiYtQKr4PyoB7rVC55X-244" value="1" style="resizable=0;html=1;whiteSpace=wrap;align=right;verticalAlign=bottom;" connectable="0" vertex="1" parent="YSiYtQKr4PyoB7rVC55X-243">
          <mxGeometry x="1" relative="1" as="geometry">
            <mxPoint x="11" y="-2" as="offset" />
          </mxGeometry>
        </mxCell>
        <mxCell id="YSiYtQKr4PyoB7rVC55X-245" value="1" style="text;html=1;align=center;verticalAlign=middle;resizable=0;points=[];autosize=1;strokeColor=none;fillColor=none;" vertex="1" parent="1">
          <mxGeometry x="370" y="148" width="30" height="30" as="geometry" />
        </mxCell>
        <mxCell id="YSiYtQKr4PyoB7rVC55X-246" value="1" style="text;html=1;align=center;verticalAlign=middle;resizable=0;points=[];autosize=1;strokeColor=none;fillColor=none;" vertex="1" parent="1">
          <mxGeometry x="597" y="293" width="30" height="30" as="geometry" />
        </mxCell>
        <mxCell id="YSiYtQKr4PyoB7rVC55X-252" value="" style="rounded=0;whiteSpace=wrap;html=1;" vertex="1" parent="1">
          <mxGeometry x="40" y="948" width="260" height="140" as="geometry" />
        </mxCell>
        <mxCell id="YSiYtQKr4PyoB7rVC55X-250" value="TG/2022/1359 - KD SAMARAWICKRAMA" style="text;html=1;align=center;verticalAlign=middle;resizable=0;points=[];autosize=1;strokeColor=none;fillColor=none;" vertex="1" parent="1">
          <mxGeometry x="46" y="1018" width="250" height="30" as="geometry" />
        </mxCell>
        <mxCell id="YSiYtQKr4PyoB7rVC55X-248" value="TG/2022/1360 - GK GUNAWARDHANA" style="text;html=1;align=center;verticalAlign=middle;resizable=0;points=[];autosize=1;strokeColor=none;fillColor=none;" vertex="1" parent="1">
          <mxGeometry x="46" y="988" width="240" height="30" as="geometry" />
        </mxCell>
        <mxCell id="YSiYtQKr4PyoB7rVC55X-247" value="TG/2022/1354 - LAMC WIJESINGHE" style="text;html=1;align=center;verticalAlign=middle;resizable=0;points=[];autosize=1;strokeColor=none;fillColor=none;" vertex="1" parent="1">
          <mxGeometry x="51" y="958" width="220" height="30" as="geometry" />
        </mxCell>
        <mxCell id="YSiYtQKr4PyoB7rVC55X-249" value="TG/2022/1403 - RWMLM RASINGOLLA" style="text;html=1;align=center;verticalAlign=middle;resizable=0;points=[];autosize=1;strokeColor=none;fillColor=none;" vertex="1" parent="1">
          <mxGeometry x="46" y="1048" width="240" height="30" as="geometry" />
        </mxCell>
      </root>
    </mxGraphModel>
  </diagram>
</mxfile>
